<svg xmlns="http://www.w3.org/2000/svg" viewBox="0 0 48 48" fill="none">
  <rect width="48" height="48" rx="12" fill="#0f172a"/>
  <path d="M29.9 16.2c-2.5-.9-5.4-.3-7.6 1.8-2.7 2.7-3.2 6.5-1.1 8.7 2.1 2.1 5.9 1.6 8.6-1.1 2.1-2.1 2.7-5.1 1.8-7.5 1.4-.3 2.8.1 3.8 1.1 1.5 1.5 1.2 4.2-.7 6.1-1.2 1.2-2.8 1.8-4.2 1.7-.7 2.5-2.4 4.9-4.7 6.7-3.5 2.7-7.4 3.5-9.1 1.8-1.7-1.7-1-5.6 1.8-9.1 1.8-2.3 4.2-4 6.7-4.7-.1-1.4.5-3 1.7-4.2 1.9-1.9 4.6-2.2 6.1-.7 1 .9 1.4 2.3 1.1 3.7z" fill="#fb923c"/>
  <circle cx="14.5" cy="33.5" r="4.5" fill="#fb923c"/>
  <circle cx="13" cy="31.8" r="1.1" fill="#fff7ed"/>
  <circle cx="34" cy="13.5" r="4.5" fill="#fb923c"/>
  <circle cx="32.5" cy="11.8" r="1.1" fill="#fff7ed"/>
</svg>